<?xml version="1.0" encoding="utf-8"?>
<!-- Generator: Adobe Illustrator 22.0.1, SVG Export Plug-In . SVG Version: 6.00 Build 0)  -->
<svg version="1.1" id="Capa_1" xmlns="http://www.w3.org/2000/svg" xmlns:xlink="http://www.w3.org/1999/xlink" x="0px" y="0px"
	 viewBox="0 0 417 173" style="enable-background:new 0 0 417 173;" xml:space="preserve">
<style type="text/css">
	.st0{fill:#4A4A4A;}
	.st1{fill:#FDFDFD;}
	.st2{fill:#FBFBFB;}
	.st3{fill:#FCFCFC;}
	.st4{fill:#F7F7F7;}
</style>
<g>
	<path class="st0" d="M366.2,73.6c0,4.7-0.3,9.2,0.1,13.6c0.3,3.7-1.8,3.5-4.2,3.4c-2.3,0-4.4,0.5-4.3-3.3
		c0.2-14.3,0.1-28.6,0.1-42.8c0-1.3-0.7-3.5,1.8-3.1c2.2,0.3,5.2-1.7,6.4,1.5c0.6,1.6,0.2,2.3,2.2,1c8.3-5.5,17.3-4,23.4,3.5
		c5.6,7,5.1,18.6-1.2,25.2c-6.2,6.5-15.8,7-23.3,1.2C367,73.6,366.8,73.6,366.2,73.6z"/>
	<path class="st0" d="M38,77.5c-11.8-0.1-21.8-7.1-25-17.7C9.7,48.6,14,36.7,23.5,30.5c9.5-6.2,23.1-5.4,31.6,2
		c1,0.9,4.2,1.9,1.3,3.9c-1.8,1.3-2.7,5.3-6.6,2.2c-8-6.5-19.3-5.2-25.4,2.5c-6,7.5-4.7,18.5,3,25c5.9,5,16,5.4,22.1,0
		c3.9-3.5,5.3-0.1,7.1,1.6c2.7,2.5-0.9,3.3-2,4.2C49.8,75.9,44.2,77.7,38,77.5z"/>
	<path class="st0" d="M282.1,45.8c3.4-3.6,6.8-5.1,10.7-5.1c7.4-0.1,12.5,4.8,13,12.8c0.2,3.5,0,7,0.1,10.5c0.1,2.5-0.8,5.1,2.8,6.5
		c1.9,0.7,0.9,3.6,0.6,5.5c-0.2,1.8-2.1,1.3-3.3,1.3c-5.3,0.1-8.1-2.3-8.4-7.6c-0.3-4.6,0-9.3-0.4-14c-0.4-5.5-2.8-7.7-7.3-7.6
		c-4.4,0.1-7.6,3.1-7.8,8c-0.3,5.6-0.3,11.3,0,17c0.1,3.1-0.6,4.4-4,4.2c-2.9-0.2-4.4-0.3-4.3-3.9c0.2-14,0.2-28,0-41.9
		c-0.1-3.5,1.3-3.9,4.3-4c3.3-0.1,4.3,0.9,4.1,4.1C281.9,36,282.1,40.3,282.1,45.8z"/>
	<path class="st0" d="M206.8,71.8c-7,6.7-17.3,8.2-25.1,3.7c-7-4.1-10-12.4-7.8-21.3c2.2-8.9,10.8-14.7,20-13.5
		c9.1,1.1,15.6,8.5,15.7,17.6c0.1,2.7-0.9,3.4-3.5,3.3c-7-0.2-14,0-21-0.2c-3.8-0.1-3.9,1.3-2.5,4.1c2.5,5,9.8,7.5,15.1,4.1
		C202.5,66.4,204.5,68.2,206.8,71.8z"/>
	<path class="st0" d="M80.6,40.3c11.1,0,19.4,8.2,19.3,19c-0.2,10.7-8.9,19-19.7,18.7C69,77.8,60.9,69.7,61,58.8
		C61,48,69.3,40.2,80.6,40.3z"/>
	<path class="st0" d="M332.1,40.3c11.2,0,19.5,8.1,19.5,18.8c-0.1,10.7-8.6,19-19.5,18.9c-11.1-0.1-19.4-8.2-19.4-19
		C312.8,48,320.8,40.2,332.1,40.3z"/>
	<path class="st0" d="M142,45.7c9.5-9.1,21.8-5,23.8,4.2c0.9,4.3,0.4,8.9,0.7,13.4c0.2,2.6-1.1,5.5,2.9,6.9c1.7,0.6,0.8,3.7,0.5,5.6
		c-0.3,2-2.3,1.5-3.7,1.5c-5.1,0-8-2.6-8.2-7.9c-0.2-4.3,0-8.6-0.1-13c-0.1-5.3-2.7-8.1-7.2-8.3c-4.7-0.1-8.2,2.9-8.4,7.9
		c-0.3,6-0.4,12,0,17.9c0.2,3.9-2.1,3.2-4.4,3.3c-2.3,0.1-4.1,0.2-4-3.2c0.2-9.6,0.1-19.3,0.1-28.9c0-1.9-0.6-4.3,2.7-3.7
		C139,41.8,142.9,39.7,142,45.7z"/>
	<path class="st0" d="M253.5,77.8c-3.7-0.1-7.4-0.5-10.4-2.8c-1.6-1.2-5-2.3-3.2-5c1.4-2.2,3.7-5.2,7.3-1.5c2.4,2.5,6.2,2.2,9.5,1.6
		c1.7-0.3,3.2-1.2,3.4-3.2c0.2-2-0.9-3.1-2.6-3.8c-3.2-1.3-6.6-2.3-9.7-3.7c-4-1.7-6.1-4.8-6-9.4c0.1-4.6,2.5-7.5,6.6-8.9
		c5.2-1.8,10.4-1.8,15.1,1.7c1,0.8,3.2,1.7,1.3,3.3c-1.4,1.2-1.8,4.5-4.9,2.7c-0.3-0.2-0.5-0.4-0.9-0.5c-3.2-1.2-7.2-2.7-8.7,1.1
		c-1.6,3.9,2.9,4.3,5.5,5.5c1.9,0.9,4,1.5,6,2.3c4.8,2.2,7.1,5.9,6.3,11.2c-0.7,5-4.2,7.3-8.6,8.6C257.6,77.7,255.5,77.6,253.5,77.8
		z"/>
	<path class="st0" d="M223.8,45.8c2.7-2.6,4.7-4.2,7.5-4.6c5.4-0.9,6-0.4,5.8,5c-0.1,2.1-0.5,2.6-2.8,2.6
		C226.9,48.7,224,51.8,224,59c0,5-0.3,10,0.1,14.9c0.3,3.8-2,3.4-4.3,3.3c-2.3,0-4.6,0.7-4.5-3.2c0.2-9.6,0.1-19.2,0.1-28.8
		c0-2-0.5-4.3,2.8-3.7C220.5,41.8,224.7,39.5,223.8,45.8z"/>
	<path class="st0" d="M114.7,45.6c2.5-2.2,4.6-4,7.6-4.4c5.2-0.7,5.8-0.3,5.6,4.9c-0.1,2-0.3,2.8-2.7,2.8c-7.9,0-10.7,3-10.8,10.9
		c-0.1,4.6-0.3,9.3,0.1,13.9c0.2,3.5-1.5,3.7-4.2,3.6c-2.4-0.1-4.4,0.4-4.3-3.4c0.3-9.5,0.1-18.9,0.2-28.4c0-1.6-1.2-4,2.4-4.1
		C113.6,41.2,113.9,41.1,114.7,45.6z"/>
	<path class="st0" d="M131.1,121.8c5.1-3,10-3.9,15-1.1c5.5,3.1,7.6,10.5,4.9,16.1c-2.8,5.8-10,8.3-16.1,5.9
		c-1.5-0.6-3.1-2.9-4.8,0.4c-0.5,0.9-3.8,0.9-3.7-2.5c0.2-9.1,0.1-18.2,0-27.4c0-2,0.8-2.5,2.7-2.5c2,0,2.1,1.1,2.1,2.5
		C131.1,115.9,131.1,118.6,131.1,121.8z"/>
	<path class="st0" d="M211,127.7c0,4.3-0.2,8.7,0.1,13c0.2,3.4-2.9,3.5-3.6,2.5c-2.3-3.1-4-0.8-6-0.1c-8.2,2.8-16.1-2.6-16.5-11.5
		c-0.3-6-0.1-12-0.1-18c0-1.5-0.2-2.9,2.2-2.8c2.1,0.1,2.9,0.7,2.8,2.9c-0.1,5.7-0.1,11.3,0,17c0.1,5.6,3.1,8.8,7.9,8.8
		c4.9,0,7.9-3,8.1-8.7c0.2-5.7,0.1-11.3,0.1-17c0-2,0.4-3,2.7-3c2.3,0,2.2,1.3,2.2,2.9C211,118.3,211,123,211,127.7z"/>
	<path class="st0" d="M219.3,121.9c3-1.1,5.3-2.8,8.2-2.8c5.4,0.1,9.8,2.7,11.9,7.5c1.9,4.4,0.9,9.9-2.4,13.4
		c-3.8,3.9-8.3,4.6-13.3,3.1c-1.8-0.5-3.4-3.1-5.6,0c-0.7,1-3.4,0.7-3.3-2.3c0.1-9.1,0.1-18.3,0.1-27.4c0-1.4,0.1-2.5,2.1-2.5
		c2.2,0,2.4,1.1,2.4,2.8C219.3,116.3,219.3,118.9,219.3,121.9z"/>
	<path class="st0" d="M256.6,132.7c-2,0-4,0-6,0c-1.1,0-2.8-0.5-3.1,0.9c-0.2,0.9,0.7,2.1,1.4,3c2.6,3.4,7.1,4.2,11.1,1.4
		c1.8-1.3,3.2-1.9,4.4,0.2c1.1,1.9-1,2.4-2,3.2c-4.2,3.1-11.3,2.9-15.4-0.4c-4.4-3.5-5.8-9.6-3.5-14.8c2.2-5,7.3-7.7,13.1-7
		c5,0.6,8.7,4.6,9.8,9.9c0.5,2.5,0.1,3.8-2.8,3.6C261.3,132.6,259,132.7,256.6,132.7z"/>
	<path class="st0" d="M151.2,120c3.7-1.2,5.2,0.3,6.3,3.3c1.6,4.5,3.7,8.8,5.6,13.2c4.7-5.2,2.9-14.4,10.4-17.4
		c0.5,0.3,1.1,0.6,1.6,0.9c-4,9.7-7.9,19.4-12.1,29c-1.3,3-4.1,3.5-7.2,3.4c-1.1-0.1-2-0.2-1.9-1.6c0.1-1,0.2-1.7,1.4-2.2
		c5.7-2.5,6.3-4.1,3.9-9.6C156.6,132.8,154,126.6,151.2,120z"/>
	<path class="st0" d="M269.4,131.2c0-2.6,0-5.3,0-7.9c0-0.8,0-1.7,0-2.5c0-1.4,1.5-1.9,2-1.4c3,3.9,7-2.5,9.7,1
		c0.6,0.8,0.9,3-1.6,3.2c-4.8,0.5-5.6,3.8-5.5,7.8c0.1,3,0,5.9,0,8.9c0,1.4,0.3,2.9-2.1,2.9c-2.5,0-2.6-1.3-2.6-3.1
		C269.4,137.1,269.4,134.2,269.4,131.2z"/>
	<path class="st1" d="M365.8,59.1c0-6.3,4.7-11,11-11c5.9,0,10.5,4.8,10.5,10.9c0.1,5.9-4.8,11.1-10.5,11.1
		C370.8,70.2,365.8,65.1,365.8,59.1z"/>
	<path class="st2" d="M181.7,55.5c1.3-5.2,4.6-7.2,8.7-7.8c3.7-0.6,6.9,0.8,9.2,3.8c0.7,0.8,1.2,2.2,1.1,3.2
		c-0.3,1.6-1.9,0.8-2.9,0.8C192.6,55.5,187.4,55.5,181.7,55.5z"/>
	<path class="st1" d="M69,59.3c0-6.7,4.6-11.2,11.3-11.2c6.4,0,11,4.5,11.1,10.9c0,6.7-4.5,11.4-11.1,11.5
		C73.5,70.6,69,66.1,69,59.3z"/>
	<path class="st1" d="M332.2,48.1c6.3,0,11,4.7,11,11c0,6.7-4.6,11.4-11.2,11.4c-6.8,0-11.2-4.4-11.1-11.2
		C321,52.6,325.5,48.1,332.2,48.1z"/>
	<path class="st3" d="M147.8,131.4c-0.1,4.3-4,8-8.4,8c-4.8,0-8.4-3.8-8.2-8.5c0.2-4.7,3.6-7.8,8.5-7.7
		C144.2,123.4,147.9,127.1,147.8,131.4z"/>
	<path class="st3" d="M235.9,131.6c-0.1,4.4-4.1,8.1-8.5,8c-4.5-0.1-8.3-4-8.2-8.4c0.1-4.4,4-8.1,8.5-8
		C232.3,123.4,236,127.2,235.9,131.6z"/>
	<path class="st4" d="M261.8,129.1c-5.1,0-9.7,0-14.6,0c1.4-3.7,3.5-5.8,7.2-5.8C258.1,123.2,260.4,125.1,261.8,129.1z"/>
</g>
</svg>
