<?xml version="1.0" encoding="utf-8"?>
<!-- Generator: Adobe Illustrator 24.0.3, SVG Export Plug-In . SVG Version: 6.00 Build 0)  -->
<svg version="1.1" id="Capa_1" xmlns="http://www.w3.org/2000/svg" xmlns:xlink="http://www.w3.org/1999/xlink" x="0px" y="0px"
	 viewBox="0 0 417 173" style="enable-background:new 0 0 417 173;" xml:space="preserve">
<style type="text/css">
	.st0{fill:#010101;}
	.st1{fill:#020202;}
	.st2{fill:#030303;}
	.st3{fill:#0A0A0A;}
	.st4{fill:#FDFDFD;}
	.st5{fill:#FBFBFB;}
	.st6{fill:#FCFCFC;}
	.st7{fill:#F7F7F7;}
</style>
<g>
	<path d="M366.22,73.59c0,4.69-0.28,9.19,0.09,13.64c0.3,3.74-1.83,3.46-4.24,3.41c-2.3-0.04-4.4,0.53-4.34-3.32
		c0.25-14.28,0.08-28.56,0.12-42.85c0-1.31-0.68-3.49,1.82-3.08c2.18,0.35,5.21-1.73,6.42,1.45c0.61,1.6,0.16,2.3,2.18,0.96
		c8.26-5.5,17.29-4.02,23.41,3.51c5.65,6.95,5.09,18.56-1.22,25.17c-6.19,6.48-15.84,6.96-23.31,1.16
		C367.04,73.56,366.84,73.62,366.22,73.59z"/>
	<path d="M38.02,77.53c-11.83-0.05-21.8-7.12-24.95-17.71c-3.33-11.18,0.92-23.14,10.42-29.31c9.52-6.18,23.15-5.39,31.56,2
		c1,0.88,4.2,1.88,1.33,3.88c-1.81,1.26-2.71,5.3-6.6,2.15c-8.01-6.5-19.28-5.17-25.37,2.5c-5.96,7.5-4.66,18.48,2.95,24.98
		c5.86,5,16.03,5.42,22.06,0.01c3.89-3.5,5.29-0.07,7.09,1.62c2.71,2.54-0.93,3.27-1.97,4.17C49.85,75.9,44.25,77.74,38.02,77.53z"
		/>
	<path d="M282.09,45.76c3.35-3.63,6.8-5.06,10.71-5.12c7.44-0.12,12.51,4.82,13.05,12.82c0.23,3.48,0.01,6.99,0.11,10.48
		c0.07,2.49-0.83,5.15,2.84,6.55c1.85,0.71,0.87,3.61,0.65,5.46c-0.22,1.83-2.06,1.3-3.28,1.33c-5.26,0.14-8.12-2.35-8.44-7.61
		c-0.28-4.64-0.03-9.32-0.39-13.95c-0.43-5.46-2.76-7.67-7.29-7.57c-4.41,0.09-7.61,3.11-7.84,8.02
		c-0.27,5.64-0.26,11.31-0.04,16.96c0.12,3.14-0.58,4.4-4.03,4.22c-2.91-0.15-4.39-0.35-4.33-3.95c0.23-13.97,0.23-27.95,0-41.91
		c-0.06-3.55,1.33-3.87,4.3-3.98c3.34-0.13,4.28,0.93,4.07,4.15C281.88,35.95,282.09,40.28,282.09,45.76z"/>
	<path class="st0" d="M206.79,71.75c-7,6.7-17.32,8.2-25.08,3.65c-6.96-4.08-10-12.37-7.81-21.34c2.16-8.87,10.76-14.69,20.01-13.53
		c9.14,1.14,15.58,8.48,15.74,17.64c0.05,2.71-0.94,3.36-3.48,3.29c-6.99-0.18-13.99,0.03-20.97-0.2c-3.75-0.12-3.85,1.34-2.47,4.08
		c2.48,4.96,9.77,7.49,15.15,4.05C202.48,66.44,204.54,68.24,206.79,71.75z"/>
	<path class="st0" d="M80.56,40.26c11.12,0.05,19.42,8.24,19.27,19C99.68,69.91,90.94,78.22,80.12,78
		c-11.16-0.23-19.25-8.33-19.17-19.18C61.03,48.02,69.29,40.2,80.56,40.26z"/>
	<path d="M332.11,40.26c11.18,0.01,19.53,8.07,19.46,18.79c-0.08,10.71-8.6,19-19.49,18.94c-11.11-0.06-19.41-8.19-19.36-18.97
		C312.77,48.05,320.83,40.25,332.11,40.26z"/>
	<path class="st0" d="M142,45.72c9.51-9.14,21.84-4.97,23.83,4.15c0.94,4.31,0.41,8.92,0.71,13.39c0.17,2.55-1.1,5.51,2.9,6.94
		c1.67,0.6,0.82,3.69,0.53,5.55c-0.32,1.98-2.32,1.5-3.72,1.51c-5.14,0.04-7.97-2.58-8.25-7.91c-0.22-4.31,0.01-8.64-0.1-12.95
		c-0.13-5.34-2.66-8.15-7.25-8.28c-4.71-0.13-8.21,2.89-8.44,7.9c-0.27,5.97-0.35,11.97-0.01,17.93c0.22,3.9-2.1,3.2-4.36,3.29
		c-2.31,0.09-4.05,0.24-3.97-3.16c0.24-9.63,0.08-19.26,0.09-28.9c0-1.9-0.63-4.32,2.74-3.74C139.01,41.84,142.93,39.71,142,45.72z"
		/>
	<path d="M253.53,77.8c-3.73-0.06-7.44-0.5-10.43-2.77c-1.55-1.18-4.99-2.31-3.24-4.97c1.44-2.2,3.7-5.15,7.34-1.51
		c2.45,2.46,6.18,2.18,9.51,1.59c1.66-0.3,3.16-1.21,3.37-3.19c0.21-1.97-0.93-3.12-2.6-3.78c-3.23-1.26-6.55-2.33-9.74-3.7
		c-4.04-1.74-6.1-4.79-5.98-9.37c0.13-4.63,2.51-7.47,6.61-8.92c5.24-1.85,10.41-1.78,15.08,1.7c1.03,0.77,3.18,1.74,1.3,3.32
		c-1.36,1.15-1.78,4.54-4.87,2.74c-0.29-0.17-0.55-0.4-0.85-0.52c-3.17-1.23-7.16-2.69-8.73,1.13c-1.61,3.93,2.94,4.29,5.46,5.47
		c1.94,0.91,4.05,1.46,6,2.35c4.78,2.19,7.07,5.88,6.3,11.2c-0.72,4.97-4.19,7.35-8.59,8.57C257.57,77.67,255.52,77.6,253.53,77.8z"
		/>
	<path class="st1" d="M223.79,45.85c2.69-2.64,4.7-4.16,7.48-4.61c5.43-0.87,5.98-0.39,5.8,5.05c-0.07,2.1-0.46,2.63-2.77,2.59
		c-7.37-0.13-10.26,2.89-10.3,10.12c-0.03,4.97-0.27,9.96,0.08,14.91c0.27,3.84-2,3.36-4.33,3.33c-2.26-0.03-4.6,0.66-4.5-3.22
		c0.23-9.61,0.08-19.22,0.07-28.83c0-1.97-0.46-4.28,2.79-3.74C220.54,41.85,224.7,39.53,223.79,45.85z"/>
	<path d="M114.67,45.56c2.54-2.17,4.57-3.98,7.58-4.38c5.24-0.69,5.78-0.28,5.6,4.89c-0.07,1.97-0.26,2.79-2.73,2.8
		c-7.94,0.03-10.71,2.99-10.82,10.89c-0.06,4.65-0.26,9.32,0.07,13.94c0.25,3.53-1.52,3.67-4.16,3.55
		c-2.36-0.11-4.39,0.39-4.27-3.39c0.3-9.46,0.05-18.93,0.15-28.39c0.02-1.64-1.23-4.03,2.38-4.14
		C113.58,41.21,113.88,41.13,114.67,45.56z"/>
	<path class="st2" d="M131.13,121.8c5.11-3.01,10.04-3.91,14.96-1.14c5.48,3.09,7.59,10.46,4.88,16.07
		c-2.79,5.77-9.99,8.34-16.12,5.86c-1.52-0.62-3.07-2.91-4.77,0.37c-0.46,0.88-3.75,0.88-3.69-2.48c0.15-9.12,0.1-18.24,0.02-27.37
		c-0.02-2.02,0.81-2.51,2.66-2.54c2-0.03,2.08,1.11,2.07,2.53C131.12,115.86,131.13,118.62,131.13,121.8z"/>
	<path class="st1" d="M211.04,127.66c0,4.33-0.19,8.66,0.06,12.97c0.2,3.37-2.89,3.53-3.63,2.54c-2.31-3.09-3.96-0.76-5.96-0.09
		c-8.22,2.76-16.06-2.62-16.46-11.5c-0.27-5.98-0.05-11.98-0.06-17.96c0-1.51-0.24-2.93,2.18-2.83c2.1,0.09,2.9,0.65,2.84,2.87
		c-0.15,5.65-0.12,11.31-0.03,16.97c0.09,5.61,3.05,8.79,7.95,8.82c4.93,0.03,7.93-3.04,8.1-8.67c0.17-5.65,0.15-11.31,0.06-16.96
		c-0.03-2.03,0.42-3.02,2.72-3c2.28,0.01,2.24,1.29,2.23,2.88C211.02,118.34,211.04,123,211.04,127.66z"/>
	<path class="st0" d="M219.32,121.9c3-1.05,5.26-2.8,8.22-2.77c5.36,0.05,9.77,2.66,11.86,7.47c1.92,4.4,0.95,9.94-2.4,13.41
		c-3.75,3.89-8.3,4.56-13.29,3.14c-1.84-0.52-3.35-3.14-5.55,0.03c-0.72,1.04-3.37,0.7-3.32-2.31c0.15-9.14,0.07-18.28,0.05-27.42
		c0-1.45,0.06-2.5,2.05-2.54c2.18-0.04,2.44,1.06,2.39,2.77C219.27,116.29,219.32,118.9,219.32,121.9z"/>
	<path class="st0" d="M256.63,132.74c-2,0-4-0.04-5.99,0.02c-1.11,0.03-2.75-0.48-3.06,0.85c-0.2,0.86,0.74,2.14,1.42,3.04
		c2.61,3.44,7.13,4.19,11.08,1.44c1.82-1.27,3.17-1.86,4.37,0.16c1.15,1.93-0.99,2.45-2,3.2c-4.23,3.1-11.32,2.87-15.38-0.36
		c-4.35-3.46-5.82-9.65-3.51-14.82c2.24-5.02,7.3-7.73,13.08-6.99c5.01,0.64,8.72,4.56,9.75,9.88c0.49,2.53,0.14,3.82-2.77,3.63
		C261.29,132.62,258.96,132.74,256.63,132.74z"/>
	<path class="st2" d="M151.24,120.01c3.69-1.24,5.18,0.3,6.26,3.29c1.62,4.49,3.67,8.82,5.55,13.24
		c4.72-5.17,2.92-14.38,10.41-17.37c0.54,0.3,1.08,0.61,1.62,0.91c-4.01,9.69-7.94,19.41-12.08,29.04
		c-1.28,2.99-4.14,3.53-7.16,3.36c-1.11-0.06-1.98-0.2-1.89-1.62c0.06-1.01,0.18-1.67,1.4-2.21c5.74-2.53,6.29-4.08,3.94-9.62
		C156.64,132.8,154,126.55,151.24,120.01z"/>
	<path class="st3" d="M269.37,131.19c0-2.65,0-5.29,0-7.94c0-0.83,0-1.65,0.03-2.48c0.05-1.36,1.54-1.95,1.97-1.41
		c3.04,3.86,6.99-2.49,9.69,0.97c0.59,0.76,0.9,2.98-1.58,3.23c-4.82,0.47-5.6,3.82-5.46,7.84c0.1,2.97,0.03,5.95,0.01,8.93
		c-0.01,1.45,0.33,2.9-2.12,2.91c-2.51,0.01-2.59-1.3-2.56-3.12C269.42,137.14,269.37,134.16,269.37,131.19z"/>
	<path class="st4" d="M365.76,59.09c0-6.28,4.72-10.99,10.99-10.98c5.87,0.01,10.47,4.78,10.55,10.94
		c0.07,5.94-4.77,11.06-10.48,11.09C370.8,70.17,365.76,65.13,365.76,59.09z"/>
	<path class="st5" d="M181.7,55.45c1.26-5.23,4.57-7.16,8.7-7.82c3.72-0.59,6.9,0.83,9.22,3.8c0.66,0.85,1.24,2.2,1.05,3.17
		c-0.3,1.56-1.92,0.8-2.94,0.82C192.57,55.49,187.42,55.45,181.7,55.45z"/>
	<path class="st4" d="M69,59.35c0-6.68,4.56-11.22,11.28-11.23c6.41-0.01,11.02,4.54,11.06,10.92c0.04,6.7-4.52,11.43-11.08,11.47
		C73.49,70.55,69,66.11,69,59.35z"/>
	<path class="st4" d="M332.23,48.11c6.3,0.02,11.02,4.73,11.03,11.01c0.01,6.7-4.57,11.38-11.17,11.39
		c-6.77,0.01-11.16-4.41-11.15-11.23C320.96,52.57,325.48,48.09,332.23,48.11z"/>
	<path class="st6" d="M147.76,131.44c-0.11,4.29-4.04,8.03-8.43,8.01c-4.82-0.02-8.41-3.75-8.21-8.53c0.19-4.66,3.63-7.77,8.49-7.66
		C144.18,123.38,147.87,127.07,147.76,131.44z"/>
	<path class="st6" d="M235.88,131.65c-0.11,4.4-4.09,8.15-8.52,8.04c-4.5-0.12-8.28-4-8.17-8.4c0.1-4.43,3.99-8.06,8.54-7.96
		C232.3,123.43,235.99,127.19,235.88,131.65z"/>
	<path class="st7" d="M261.76,129.08c-5.12,0-9.66,0-14.65,0c1.35-3.73,3.5-5.75,7.25-5.81
		C258.13,123.21,260.41,125.12,261.76,129.08z"/>
</g>
</svg>
